<?xml version="1.0" encoding="utf-8"?>
<!-- Generator: Adobe Illustrator 21.1.0, SVG Export Plug-In . SVG Version: 6.00 Build 0)  -->
<svg version="1.1" id="peng_joon" xmlns="http://www.w3.org/2000/svg" xmlns:xlink="http://www.w3.org/1999/xlink" x="0px" y="0px"
	 viewBox="0 0 891 154" style="enable-background:new 0 0 891 154;" xml:space="preserve">
<style type="text/css">
	.st0{fill:url(#bg_1_);}
	.st1{fill:#FFFFFF;}
</style>
<linearGradient id="bg_1_" gradientUnits="userSpaceOnUse" x1="409.8929" y1="76.4163" x2="888.4296" y2="76.4163">
	<stop  offset="0" style="stop-color:#CE8A38"/>
	<stop  offset="0.109" style="stop-color:#D39340"/>
	<stop  offset="0.2901" style="stop-color:#E1AD55"/>
	<stop  offset="0.5199" style="stop-color:#F7D678"/>
	<stop  offset="0.5251" style="stop-color:#F8D779"/>
	<stop  offset="0.9944" style="stop-color:#BD7029"/>
	<stop  offset="1" style="stop-color:#BA7C34"/>
</linearGradient>
<polygon id="bg" class="st0" points="869,145 409.9,145 430.2,7.8 888.4,7.8 "/>
<g id="peng">
	<path class="st1" d="M7.8,125.3V121h13V32.5h-13v-4.4h54.1c7.1,0,13.3,1.2,18.5,3.7C89.5,36.3,94,43.6,94,53.7
		c0,4.1-0.7,7.8-2.1,11.2c-4.8,11.8-16.5,17.7-35.2,17.7H43.5V121h11.8c2.3,0.2,3.7,1.7,4.4,4.4H7.8z M43.5,32.5v45.2H52
		c11.6-0.1,17.4-7.6,17.7-22.5c-0.1-14.9-5.8-22.5-17-22.7H43.5z"/>
	<path class="st1" d="M175.8,59.2L172.3,48c-0.3-1-0.7-1.9-1.1-2.9c-3.3-8.4-9.5-12.6-18.3-12.6h-18.3v40.4h31.1v4.9h-31.1V121h18.3
		c2.1,0,4-0.2,5.8-0.6c6.2-1.6,10.6-6.6,13.5-14.9l3.7-11.2h4.7l-0.6,31.1h-81V121h13V32.5h-13v-4.4h81l0.6,31.1H175.8z"/>
	<path class="st1" d="M261.9,28.1h32.7v4.4h-13v92l-9.2,1.6L210,53.4V121h9.4c2.3,0.2,3.7,1.7,4.4,4.4h-33.5V121h13V32.5h-13v-4.4
		h27.4l57.2,67.1V32.5h-13V28.1z"/>
	<path class="st1" d="M404.8,80.6V85h-10.5v40.4l-19.6-3.4c-7.1,3.2-15,4.9-23.7,4.9c-10.9,0-20.6-2.6-29-7.9
		c-13.9-9-20.9-23.1-20.9-42.5c0-15,4.4-27.1,13.3-36.1c9.3-9.2,21.3-13.8,36.1-13.8c8.2,0,16,1.6,23.5,4.7l15.2-3.1l0.6,34.4h-5
		c0-0.1,0-0.2,0-0.3c-4.1-20.4-13.9-30.6-29.3-30.6c-1.3,0-2.6,0.1-3.9,0.2c-17,1.8-25.4,17-25.4,45.4c0,9.5,0.9,17.5,2.6,24
		c3.8,13.8,12.3,20.7,25.4,20.7c6.8,0,12.7-1.9,17.7-5.8V85h-13.8v-4.4H404.8z"/>
</g>
<g id="joon">
	<path d="M497,34.4V95c0,7.2-1.2,13.5-3.6,18.8c-5.1,11.1-14.9,16.7-29.5,16.7c-6.2,0-11.3-1.1-15.6-3.2c-5.6-2.8-8.4-6.7-8.4-11.7
		c0-1.1,0.2-2.2,0.5-3.2c1.3-3.8,4.1-5.7,8.3-5.7c2.7,0,4.9,0.5,6.6,1.6c2.2,1.5,3.6,4.8,4.4,9.9c0.2,1.3,0.4,2.3,0.5,2.9
		c0.9,3.5,2.7,5.2,5.5,5.2c1.7,0,3.2-0.6,4.5-1.9c2.7-3,4.1-12.5,4.1-28.4V34.4h-14.6v-4.4h49.4v4.4H497z"/>
	<path d="M601,38.3c12.6,9.3,19,22.8,19,40.7c0,14.7-5,26.8-15.1,36.3c-9.8,9.1-21.9,13.6-36.3,13.6c-12.6,0-23.7-3.6-33.1-10.9
		c-12.2-9.5-18.3-22.7-18.3-39.7c0-14.8,5.1-26.9,15.4-36.3c9.9-9.1,22.1-13.6,36.5-13.6C581.3,28.4,592,31.7,601,38.3z M581.6,121
		c8.6-5.5,13-19.8,13-42.8c0-9.7-0.8-17.9-2.4-24.5c-3.5-13.7-11.3-20.6-23.5-20.6c-3.7,0-7,0.6-9.9,1.9c-10.7,4.5-16,19.2-16,43.9
		c0,13,1.3,23,4.1,30.1c3.9,10,11.3,15.1,22.4,15.1C574.1,124.2,578.2,123.1,581.6,121z"/>
	<path d="M715.1,38.3c12.6,9.3,19,22.8,19,40.7c0,14.7-5,26.8-15.1,36.3c-9.8,9.1-21.9,13.6-36.3,13.6c-12.6,0-23.7-3.6-33.1-10.9
		c-12.2-9.5-18.3-22.7-18.3-39.7c0-14.8,5.1-26.9,15.4-36.3c9.9-9.1,22.1-13.6,36.5-13.6C695.4,28.4,706,31.7,715.1,38.3z
		 M695.7,121c8.6-5.5,13-19.8,13-42.8c0-9.7-0.8-17.9-2.4-24.5c-3.5-13.7-11.3-20.6-23.5-20.6c-3.7,0-7,0.6-9.9,1.9
		c-10.7,4.5-16,19.2-16,43.9c0,13,1.3,23,4.1,30.1c3.9,10,11.3,15.1,22.4,15.1C688.2,124.2,692.3,123.1,695.7,121z"/>
	<path d="M813.8,30.1h32.7v4.4h-13v92l-9.2,1.6L762,55.3v67.6h9.4c2.3,0.2,3.7,1.7,4.4,4.4h-33.5v-4.4h13V34.4h-13v-4.4h27.4
		l57.2,67.1V34.4h-13V30.1z"/>
</g>
</svg>
